HIERARCHY
ROOT Hips
{
    OFFSET 0.000000 0.000000 0.000000
    CHANNELS 6 Xposition Yposition Zposition Zrotation Xrotation Yrotation
    JOINT Spine
    {
        OFFSET -0.000000 7.236184 0.000000
        CHANNELS 3 Zrotation Xrotation Yrotation
        JOINT Spine1
        {
            OFFSET -0.000000 20.420147 0.000000
            CHANNELS 3 Zrotation Xrotation Yrotation
            JOINT Neck
            {
                OFFSET -0.000000 20.336288 1.848754
                CHANNELS 3 Zrotation Xrotation Yrotation
                JOINT Head
                {
                    OFFSET -0.000000 12.354461 -1.764923
                    CHANNELS 3 Zrotation Xrotation Yrotation
                    End Site
                    {
                        OFFSET -0.000000 22.061537 0.000000
                    }
                }
            }
            JOINT LeftShoulder
            {
                OFFSET 3.573296 18.396038 -0.314103
                CHANNELS 3 Zrotation Xrotation Yrotation
                JOINT LeftArm
                {
                    OFFSET 10.880760 0.000000 0.000000
                    CHANNELS 3 Zrotation Xrotation Yrotation
                    JOINT LeftForeArm
                    {
                        OFFSET 27.185530 0.000000 0.000000
                        CHANNELS 3 Zrotation Xrotation Yrotation
                        JOINT LeftHand
                        {
                            OFFSET 27.825975 0.000000 0.000000
                            CHANNELS 3 Zrotation Xrotation Yrotation
                            End Site
                            {
                                OFFSET 13.236923 0.000000 0.000000
                            }
                        }
                    }
                }
            }
            JOINT RightShoulder
            {
                OFFSET -3.474926 18.396038 -0.314103
                CHANNELS 3 Zrotation Xrotation Yrotation
                JOINT RightArm
                {
                    OFFSET -10.880760 0.000000 0.000000
                    CHANNELS 3 Zrotation Xrotation Yrotation
                    JOINT RightForeArm
                    {
                        OFFSET -27.185530 0.000000 0.000000
                        CHANNELS 3 Zrotation Xrotation Yrotation
                        JOINT RightHand
                        {
                            OFFSET -27.825975 0.000000 0.000000
                            CHANNELS 3 Zrotation Xrotation Yrotation
                            End Site
                            {
                                OFFSET -13.236923 0.000000 0.000000
                            }
                        }
                    }
                }
            }
        }
    }
    JOINT LeftUpLeg
    {
        OFFSET 8.824615 0.000000 0.000000
        CHANNELS 3 Zrotation Xrotation Yrotation
        JOINT LeftLeg
        {
            OFFSET -0.000000 -35.111282 0.000000
            CHANNELS 3 Zrotation Xrotation Yrotation
            JOINT LeftFoot
            {
                OFFSET -0.000000 -42.324711 0.000000
                CHANNELS 3 Zrotation Xrotation Yrotation
                JOINT LeftToeBase
                {
                    OFFSET -0.000000 -5.735999 13.236923
                    CHANNELS 3 Zrotation Xrotation Yrotation
                    End Site
                    {
                        OFFSET -0.000000 0.000000 3.529846
                    }
                }
            }
        }
    }
    JOINT RightUpLeg
    {
        OFFSET -8.824615 0.000000 0.000000
        CHANNELS 3 Zrotation Xrotation Yrotation
        JOINT RightLeg
        {
            OFFSET -0.000000 -35.111282 0.000000
            CHANNELS 3 Zrotation Xrotation Yrotation
            JOINT RightFoot
            {
                OFFSET -0.000000 -42.324711 0.000000
                CHANNELS 3 Zrotation Xrotation Yrotation
                JOINT RightToeBase
                {
                    OFFSET -0.000000 -5.735999 13.236923
                    CHANNELS 3 Zrotation Xrotation Yrotation
                    End Site
                    {
                        OFFSET -0.000000 0.000000 3.529846
                    }
                }
            }
        }
    }
}
MOTION
Frames:    8
Frame Time:    0.008333
-4.988060    81.431046    102.864326    -0.581468    -10.883243    -178.312500    -2.397686    -11.297725    0.738877    -0.091292    8.142435    0.982539    2.568011    3.850329    -1.345701    3.819543    -21.965700    -0.439879    -0.391543    17.303608    -3.756493    -45.679810    41.848984    -36.882126    12.196095    -10.169779    -52.595253    13.843265    -3.899925    2.183613    6.801102    18.121874    -2.528192    36.218647    42.610958    40.544613    -20.776684    -15.620181    62.650524    -20.431067    -2.456558    -2.891646    3.394786    -20.129391    -0.195143    1.338784    22.720167    -1.127070    -6.753928    -10.766701    -10.126472    0.532983    -0.944812    -0.591807    -5.441881    -15.009596    -0.042274    2.299342    15.541707    8.093146    -1.640465    -7.889544    -12.666736    -2.694630    -0.639015    2.916930    
-4.962227    81.435242    102.898407    -0.556503    -10.906665    -178.239365    -2.395637    -11.296355    0.728879    -0.056956    8.086679    0.969907    2.567538    3.886781    -1.348247    3.820345    -21.904135    -0.443337    -0.350538    17.195925    -3.851973    -45.340988    41.721550    -37.094387    12.195547    -10.220880    -52.905270    13.701024    -3.911554    2.199272    6.743367    18.058819    -2.461489    35.945660    42.539604    40.690735    -20.531136    -15.869233    63.091724    -20.169455    -2.759469    -2.933865    3.430190    -20.175446    -0.210900    1.329145    22.689249    -1.161143    -6.751829    -10.728348    -10.131828    0.530110    -0.936620    -0.588608    -5.412351    -14.997904    -0.069758    2.294830    15.458732    8.078856    -1.637341    -7.861453    -12.682798    -2.695302    -0.622915    2.917591    
-4.936711    81.439552    102.932098    -0.532455    -10.929469    -178.166962    -2.394404    -11.295151    0.719043    -0.022566    8.031439    0.957444    2.566473    3.923020    -1.351117    3.821974    -21.841816    -0.446848    -0.310094    17.088102    -3.946912    -45.007290    41.589451    -37.303833    12.196294    -10.271101    -53.210739    13.562054    -3.922646    2.210619    6.685767    17.995777    -2.394999    35.675701    42.465683    40.835274    -20.289978    -16.113873    63.529594    -19.911114    -3.059102    -2.971336    3.464290    -20.220243    -0.225257    1.320259    22.657745    -1.196319    -6.749070    -10.690186    -10.137066    0.527001    -0.928378    -0.585147    -5.384109    -14.985098    -0.096867    2.290792    15.375094    8.065491    -1.634403    -7.833143    -12.699680    -2.695940    -0.606872    2.918217    
-4.911696    81.444077    102.965164    -0.510053    -10.951238    -178.095703    -2.394632    -11.293983    0.709373    0.011996    7.976550    0.945354    2.564941    3.959799    -1.354440    3.823924    -21.778816    -0.450699    -0.270104    16.979769    -4.041194    -44.678944    41.451385    -37.511002    12.199227    -10.319353    -53.512844    13.428971    -3.931294    2.218369    6.627998    17.932997    -2.328924    35.408409    42.388046    40.980267    -20.057360    -16.352505    63.963776    -19.658167    -3.350891    -3.004246    3.496249    -20.262712    -0.237455    1.312546    22.624943    -1.233794    -6.744723    -10.652335    -10.141400    0.523624    -0.919870    -0.581389    -5.358220    -14.970122    -0.123270    2.287835    15.289926    8.053858    -1.631388    -7.804431    -12.718259    -2.696536    -0.590878    2.918797    
-4.887490    81.448868    102.997231    -0.490177    -10.971541    -178.026520    -2.397113    -11.293073    0.700002    0.046870    7.922702    0.933842    2.562124    3.996461    -1.358525    3.827172    -21.714165    -0.454792    -0.231108    16.871159    -4.134174    -44.357956    41.306862    -37.715202    12.204632    -10.364416    -53.810722    13.305258    -3.936102    2.223154    6.569935    17.870571    -2.263483    35.146328    42.305790    41.125702    -19.838169    -16.581774    64.391296    -19.413910    -3.628637    -3.032579    3.524979    -20.301655    -0.247021    1.306314    22.590361    -1.273390    -6.738508    -10.615007    -10.144936    0.519726    -0.911684    -0.577052    -5.335799    -14.952263    -0.148413    2.286380    15.203047    8.044528    -1.629172    -7.775212    -12.739168    -2.697158    -0.575179    2.919408    
-4.864106    81.454002    103.028252    -0.473267    -10.990327    -177.959549    -2.402462    -11.292546    0.691039    0.082476    7.869651    0.922921    2.557936    4.033571    -1.363480    3.831583    -21.647766    -0.459314    -0.193057    16.761585    -4.226025    -44.043827    41.154549    -37.917118    12.212920    -10.406036    -54.106422    13.192705    -3.936169    2.225404    6.511661    17.808317    -2.198772    34.888485    42.217564    41.273159    -19.634735    -16.801086    64.813225    -19.178909    -3.889435    -3.056941    3.550084    -20.336477    -0.254220    1.301467    22.553204    -1.314801    -6.729973    -10.578084    -10.147527    0.515244    -0.903131    -0.572067    -5.317390    -14.930799    -0.172086    2.286723    15.113313    8.037478    -1.627312    -7.745125    -12.762465    -2.697806    -0.559338    2.920046    
-4.841642    81.459496    103.058098    -0.459806    -11.007550    -177.895248    -2.411226    -11.292659    0.682445    0.118978    7.817608    0.912789    2.551887    4.071190    -1.369465    3.837782    -21.579332    -0.464141    -0.155890    16.651310    -4.316548    -43.737614    40.993755    -38.116821    12.224100    -10.444156    -54.400017    13.093139    -3.931269    2.225497    6.452882    17.746723    -2.134881    34.636036    42.122009    41.423393    -19.449656    -17.008677    65.228493    -18.954626    -4.129603    -3.077940    3.571019    -20.366575    -0.259207    1.298015    22.512823    -1.357236    -6.719087    -10.541426    -10.149466    0.510038    -0.894572    -0.566278    -5.303619    -14.905502    -0.193681    2.289268    15.020449    8.032654    -1.625704    -7.714067    -12.788381    -2.698417    -0.543625    2.920642    
-4.820276    81.465302    103.086494    -0.450077    -11.023202    -177.834442    -2.423706    -11.293425    0.674420    0.156495    7.766912    0.903510    2.544077    4.109001    -1.376336    3.845072    -21.509737    -0.469455    -0.120330    16.540859    -4.404873    -43.442341    40.826084    -38.312141    12.238205    -10.479039    -54.689850    13.008615    -3.921801    2.223788    6.394153    17.685884    -2.072447    34.391972    42.019699    41.575142    -19.285999    -17.202333    65.633316    -18.743721    -4.345242    -3.096205    3.587623    -20.391554    -0.262507    1.295472    22.469202    -1.399495    -6.705979    -10.505252    -10.150709    0.504217    -0.886133    -0.559806    -5.294594    -14.876560    -0.212975    2.293803    14.924805    8.029348    -1.624625    -7.682076    -12.815808    -2.699113    -0.527875    2.921334    
